<svg width="7" height="25" viewBox="0 0 7 25" fill="none" xmlns="http://www.w3.org/2000/svg">
<path d="M7.84961 12.8782C7.84961 13.0221 7.82194 13.1549 7.7666 13.2766C7.7168 13.3984 7.63379 13.5173 7.51758 13.6335L2.53711 18.5559C2.36003 18.7385 2.13867 18.8298 1.87305 18.8298C1.60189 18.8298 1.37223 18.7385 1.18408 18.5559C1.00146 18.3678 0.910156 18.1409 0.910156 17.8752C0.910156 17.6096 1.00977 17.3744 1.20898 17.1697L5.56689 12.8782L1.20898 8.58667C1.00977 8.38192 0.910156 8.14673 0.910156 7.8811C0.910156 7.61548 1.00146 7.39136 1.18408 7.20874C1.37223 7.02059 1.60189 6.92651 1.87305 6.92651C2.13867 6.92651 2.36003 7.01782 2.53711 7.20044L7.51758 12.1228C7.73893 12.3386 7.84961 12.5904 7.84961 12.8782Z" fill="#3C3C43" fill-opacity="0.3"/>
</svg>
