<svg width="16" height="16" viewBox="0 0 16 16" fill="none" xmlns="http://www.w3.org/2000/svg">
<path d="M1.33325 8.00008L0.552383 7.37539L0.0526271 8.00008L0.552383 8.62478L1.33325 8.00008ZM7.33325 9.00008C7.88554 9.00008 8.33325 8.55237 8.33325 8.00008C8.33325 7.4478 7.88554 7.00008 7.33325 7.00008V9.00008ZM3.21905 4.04205L0.552383 7.37539L2.11412 8.62478L4.78079 5.29144L3.21905 4.04205ZM0.552383 8.62478L3.21905 11.9581L4.78079 10.7087L2.11412 7.37539L0.552383 8.62478ZM1.33325 9.00008H7.33325V7.00008H1.33325V9.00008Z" fill="white"/>
<path d="M6.66675 5.42121V5.2911C6.66675 4.41042 6.66675 3.97008 6.81383 3.60806C6.97422 3.21325 7.25653 2.88 7.61959 2.65688C7.95251 2.45229 8.38686 2.3799 9.25555 2.23512V2.23512C11.0134 1.94214 11.8923 1.79565 12.586 2.01894C13.3408 2.26191 13.9687 2.79383 14.3325 3.49842C14.6667 4.14593 14.6667 5.03698 14.6667 6.81909V9.18075C14.6667 10.9629 14.6667 11.8539 14.3325 12.5014C13.9687 13.206 13.3408 13.7379 12.586 13.9809C11.8923 14.2042 11.013 14.0576 9.25433 13.7645V13.7645C8.38697 13.62 7.95328 13.5477 7.62088 13.3437C7.25677 13.1204 6.97374 12.7863 6.81326 12.3904C6.66675 12.029 6.66675 11.5895 6.66675 10.7106V10.7106" stroke="white" stroke-width="2"/>
</svg>
